<svg width="572" height="284" viewBox="0 0 572 284" fill="none" xmlns="http://www.w3.org/2000/svg">
<g filter="url(#filter0_d_1_57)">
<g clip-path="url(#clip0_1_57)">
<rect x="2.67999" width="566.15" height="278.05" rx="33.5" fill="#67703D"/>
<circle cx="31.66" cy="54.197" r="5.695" transform="rotate(-5.33833 31.66 54.197)" fill="#D9D9D9"/>
<circle cx="56.4553" cy="24.2904" r="5.695" transform="rotate(-5.33833 56.4553 24.2904)" fill="#D9D9D9"/>
<g filter="url(#filter1_d_1_57)">
<line x1="31.3534" y1="54.5138" x2="56.1055" y2="24.6591" stroke="url(#paint0_linear_1_57)" stroke-width="6.7" stroke-linecap="round"/>
</g>
<path fill-rule="evenodd" clip-rule="evenodd" d="M266.287 66.9999C252.198 66.9999 240.776 78.0592 240.776 91.7016V108.803H284.931V113.553H221.152C207.062 113.553 195.64 124.613 195.64 138.255V175.307C195.64 188.95 207.062 200.009 221.152 200.009H235.87V179.108C235.87 165.466 247.292 154.406 261.382 154.406H308.48C320.402 154.406 330.066 145.048 330.066 133.505V91.7016C330.066 78.0592 318.645 66.9999 304.555 66.9999H266.287ZM260.4 97.402C265.277 97.402 269.231 93.5737 269.231 88.8514C269.231 84.1291 265.277 80.3008 260.4 80.3008C255.523 80.3008 251.569 84.1291 251.569 88.8514C251.569 93.5737 255.523 97.402 260.4 97.402Z" fill="white" fill-opacity="0.2"/>
<path fill-rule="evenodd" clip-rule="evenodd" d="M304.553 246.562C318.643 246.562 330.065 235.503 330.065 221.861V204.759H285.91V200.009H349.69C363.779 200.009 375.201 188.95 375.201 175.307V138.255C375.201 124.612 363.779 113.553 349.69 113.553H334.971V134.454C334.971 148.097 323.549 159.156 309.46 159.156H262.361C250.439 159.156 240.775 168.514 240.775 180.057V221.861C240.775 235.503 252.197 246.562 266.286 246.562H304.553ZM310.441 216.16C305.563 216.16 301.61 219.988 301.61 224.711C301.61 229.433 305.563 233.261 310.441 233.261C315.318 233.261 319.272 229.433 319.272 224.711C319.272 219.988 315.318 216.16 310.441 216.16Z" fill="white" fill-opacity="0.2"/>
<path d="M146.11 24.66V303.38L144.689 304.801L62.1586 222.271L61.5746 222.864C46.057 238.382 25.0102 247.099 3.06488 247.099V81.6092C25.01 81.6092 46.057 90.3271 61.5746 105.845L61.8266 106.099L144.689 23.2391L146.11 24.66ZM63.2241 107.545C77.7079 122.881 85.8099 143.2 85.81 164.354L85.8032 165.383C85.5472 186.008 77.5951 205.772 63.5483 220.818L144.1 301.37V26.6698L63.2241 107.545ZM25.7358 185.847C20.2081 191.162 12.8403 194.146 5.15961 194.168V244.976C25.79 244.441 45.4628 236.013 60.0932 221.383C60.2894 221.186 60.4832 220.988 60.6772 220.79L25.7358 185.847ZM34.8705 165.36C34.6323 172.429 31.8897 179.181 27.1381 184.408L62.0668 219.337C75.7267 204.679 83.4594 185.438 83.7094 165.36H34.8705ZM26.8149 143.954C31.7647 149.228 34.6271 156.123 34.8705 163.35H83.7094C83.4577 143.113 75.6049 123.727 61.7426 109.026L26.8149 143.954ZM5.15961 134.541C12.6816 134.562 19.9036 137.426 25.3911 142.536L60.3452 107.581C60.2612 107.496 60.1776 107.41 60.0932 107.326C45.4628 92.6958 25.7899 84.2677 5.15961 83.7323V134.541Z" fill="white" fill-opacity="0.2"/>
<path d="M430.14 278.72L430.81 278.05L430.14 278.05L430.14 -0.334918L430.475 -0.334918L431.561 -1.42086L514.091 81.1084L514.675 80.5157C530.193 64.998 551.24 56.2803 573.185 56.2803L573.185 221.771C551.24 221.771 530.193 213.053 514.675 197.535L514.423 197.28L431.561 280.141L430.14 278.72ZM513.026 195.835C498.542 180.498 490.44 160.18 490.44 139.025L490.447 137.997C490.703 117.372 498.655 97.6075 512.701 82.5616L432.15 2.00981L432.15 276.71L513.026 195.835ZM550.514 117.532C556.042 112.218 563.409 109.234 571.09 109.212L571.09 58.4034C550.46 58.9388 530.787 67.3667 516.157 81.9971C515.96 82.1933 515.767 82.3918 515.573 82.5899L550.514 117.532ZM541.379 138.02C541.618 130.95 544.36 124.199 549.112 118.972L514.183 84.043C500.523 98.7007 492.79 117.941 492.54 138.02L541.379 138.02ZM549.435 159.426C544.485 154.151 541.623 147.257 541.379 140.029L492.54 140.029C492.792 160.266 500.645 179.653 514.507 194.354L549.435 159.426ZM571.09 168.839C563.568 168.818 556.346 165.954 550.859 160.844L515.905 195.799C515.989 195.884 516.072 195.969 516.157 196.054C530.787 210.684 550.46 219.112 571.09 219.647L571.09 168.839Z" fill="white" fill-opacity="0.2"/>
</g>
</g>
<defs>
<filter id="filter0_d_1_57" x="-7.39098e-06" y="0" width="571.51" height="283.41" filterUnits="userSpaceOnUse" color-interpolation-filters="sRGB">
<feFlood flood-opacity="0" result="BackgroundImageFix"/>
<feColorMatrix in="SourceAlpha" type="matrix" values="0 0 0 0 0 0 0 0 0 0 0 0 0 0 0 0 0 0 127 0" result="hardAlpha"/>
<feOffset dy="2.68"/>
<feGaussianBlur stdDeviation="1.34"/>
<feComposite in2="hardAlpha" operator="out"/>
<feColorMatrix type="matrix" values="0 0 0 0 0 0 0 0 0 0 0 0 0 0 0 0 0 0 0.25 0"/>
<feBlend mode="normal" in2="BackgroundImageFix" result="effect1_dropShadow_1_57"/>
<feBlend mode="normal" in="SourceGraphic" in2="effect1_dropShadow_1_57" result="shape"/>
</filter>
<filter id="filter1_d_1_57" x="25.3233" y="21.309" width="36.8123" height="41.9149" filterUnits="userSpaceOnUse" color-interpolation-filters="sRGB">
<feFlood flood-opacity="0" result="BackgroundImageFix"/>
<feColorMatrix in="SourceAlpha" type="matrix" values="0 0 0 0 0 0 0 0 0 0 0 0 0 0 0 0 0 0 127 0" result="hardAlpha"/>
<feOffset dy="2.68"/>
<feGaussianBlur stdDeviation="1.34"/>
<feComposite in2="hardAlpha" operator="out"/>
<feColorMatrix type="matrix" values="0 0 0 0 0 0 0 0 0 0 0 0 0 0 0 0 0 0 0.25 0"/>
<feBlend mode="normal" in2="BackgroundImageFix" result="effect1_dropShadow_1_57"/>
<feBlend mode="normal" in="SourceGraphic" in2="effect1_dropShadow_1_57" result="shape"/>
</filter>
<linearGradient id="paint0_linear_1_57" x1="32.179" y1="59.55" x2="61.2075" y2="24.5374" gradientUnits="userSpaceOnUse">
<stop stop-color="#AAAAAA"/>
<stop offset="1" stop-color="#383838"/>
</linearGradient>
<clipPath id="clip0_1_57">
<rect x="2.67999" width="566.15" height="278.05" rx="33.5" fill="white"/>
</clipPath>
</defs>
</svg>
