<svg width="572" height="284" viewBox="0 0 572 284" fill="none" xmlns="http://www.w3.org/2000/svg">
<g filter="url(#filter0_d_1_81)">
<g clip-path="url(#clip0_1_81)">
<rect x="2.67999" width="566.15" height="278.05" rx="33.5" fill="#00626D"/>
<circle cx="31.66" cy="56.207" r="5.695" transform="rotate(-5.33833 31.66 56.207)" fill="#D9D9D9"/>
<circle cx="56.4553" cy="26.3005" r="5.695" transform="rotate(-5.33833 56.4553 26.3005)" fill="#D9D9D9"/>
<g filter="url(#filter1_d_1_81)">
<line x1="31.7191" y1="56.4255" x2="56.4713" y2="26.5708" stroke="url(#paint0_linear_1_81)" stroke-width="6.7" stroke-linecap="round"/>
</g>
<path d="M130.724 112.369C127.654 109.093 122.667 109.093 119.596 112.369L92.0831 141.719C89.0124 144.995 89.0124 150.315 92.0831 153.59L119.596 182.94C122.667 186.216 127.654 186.216 130.724 182.94C133.795 179.665 133.795 174.345 130.724 171.069L108.763 147.668L130.724 124.24C133.795 120.964 133.795 115.645 130.724 112.369Z" fill="white" fill-opacity="0.2"/>
<path d="M186.726 81.3987C182.55 80.1147 178.202 82.709 176.998 87.1639L145.554 204.564C144.35 209.019 146.782 213.658 150.959 214.942C155.135 216.226 159.483 213.631 160.686 209.176L192.13 91.7761C193.334 87.3211 190.902 82.6828 186.726 81.3987Z" fill="white" fill-opacity="0.2"/>
<path d="M211.914 112.343C208.843 115.619 208.843 120.938 211.914 124.214L233.851 147.642L211.889 171.069C208.819 174.345 208.819 179.665 211.889 182.94C214.96 186.216 219.947 186.216 223.017 182.94L250.531 153.59C253.601 150.315 253.601 144.995 250.531 141.719L223.017 112.369C219.947 109.093 214.96 109.093 211.889 112.369L211.914 112.343Z" fill="white" fill-opacity="0.2"/>
<path d="M94.0229 191.085C89.83 198.347 87.3634 206.476 86.8149 214.844C86.2665 223.212 87.6507 231.595 90.8599 239.342C94.069 247.09 99.0169 253.996 105.322 259.525C111.627 265.054 119.12 269.059 127.22 271.229C135.32 273.399 143.811 273.678 152.036 272.042C160.26 270.406 167.999 266.9 174.652 261.795C181.305 256.69 186.695 250.122 190.404 242.601C194.113 235.08 196.041 226.806 196.042 218.421H264.65V253.93H552.08V255.94H262.64V220.43H198.283C197.999 228.475 196.014 236.376 192.447 243.609C188.583 251.443 182.969 258.284 176.039 263.601C169.108 268.919 161.048 272.572 152.48 274.276C143.913 275.98 135.068 275.69 126.63 273.429C118.193 271.168 110.387 266.998 103.82 261.238C97.2523 255.478 92.0983 248.285 88.7554 240.214C85.4125 232.144 83.9703 223.412 84.5415 214.696C85.1128 205.979 87.6816 197.51 92.0493 189.945L94.0229 191.085ZM568.83 40.2135C542.692 40.2136 517.62 50.5351 499.059 68.9196L566.82 136.68H568.83V138.69L569.5 139.36L568.83 140.03L569.581 140.781L568.83 141.532V143.38H566.981L499.818 210.544C518.3 228.463 543.047 238.506 568.83 238.506V240.53C542.51 240.53 517.248 230.274 498.386 211.975L480.471 229.891L479.05 228.47L496.958 210.561C479.139 192.575 468.743 168.594 467.741 143.38H290.665C289.253 146.538 286.087 148.74 282.405 148.74C277.409 148.74 273.36 144.69 273.36 139.695C273.36 134.7 277.409 130.65 282.405 130.65C286.343 130.65 289.691 133.168 290.933 136.68H467.696C468.367 111.331 478.538 87.1375 496.214 68.9166L478.969 51.6715L480.39 50.2506L497.628 67.4889C516.569 48.7249 542.156 38.1901 568.83 38.1901V40.2135ZM-12.73 186.26C-2.73325 186.26 7.08719 188.892 15.7446 193.89C24.0645 198.694 31.027 205.521 35.9937 213.73H84.4194V215.74H34.8511L34.6177 215.875C29.8192 207.563 22.9171 200.661 14.606 195.863C6.29479 191.064 -3.13308 188.538 -12.73 188.538C-22.3269 188.538 -31.7547 191.064 -40.0659 195.863C-48.3771 200.661 -55.2792 207.563 -60.0776 215.875L-62.0503 214.735C-57.052 206.078 -49.8628 198.889 -41.2056 193.89C-32.5481 188.892 -22.7268 186.26 -12.73 186.26ZM469.766 143.38C470.767 168.057 480.95 191.523 498.389 209.13L564.139 143.38H469.766ZM497.646 70.3483C480.349 88.1893 470.39 111.867 469.72 136.68H563.978L497.646 70.3483Z" fill="white" fill-opacity="0.2"/>
</g>
</g>
<defs>
<filter id="filter0_d_1_81" x="-7.39098e-06" y="0" width="571.51" height="283.41" filterUnits="userSpaceOnUse" color-interpolation-filters="sRGB">
<feFlood flood-opacity="0" result="BackgroundImageFix"/>
<feColorMatrix in="SourceAlpha" type="matrix" values="0 0 0 0 0 0 0 0 0 0 0 0 0 0 0 0 0 0 127 0" result="hardAlpha"/>
<feOffset dy="2.68"/>
<feGaussianBlur stdDeviation="1.34"/>
<feComposite in2="hardAlpha" operator="out"/>
<feColorMatrix type="matrix" values="0 0 0 0 0 0 0 0 0 0 0 0 0 0 0 0 0 0 0.25 0"/>
<feBlend mode="normal" in2="BackgroundImageFix" result="effect1_dropShadow_1_81"/>
<feBlend mode="normal" in="SourceGraphic" in2="effect1_dropShadow_1_81" result="shape"/>
</filter>
<filter id="filter1_d_1_81" x="25.6891" y="23.2207" width="36.8123" height="41.9149" filterUnits="userSpaceOnUse" color-interpolation-filters="sRGB">
<feFlood flood-opacity="0" result="BackgroundImageFix"/>
<feColorMatrix in="SourceAlpha" type="matrix" values="0 0 0 0 0 0 0 0 0 0 0 0 0 0 0 0 0 0 127 0" result="hardAlpha"/>
<feOffset dy="2.68"/>
<feGaussianBlur stdDeviation="1.34"/>
<feComposite in2="hardAlpha" operator="out"/>
<feColorMatrix type="matrix" values="0 0 0 0 0 0 0 0 0 0 0 0 0 0 0 0 0 0 0.25 0"/>
<feBlend mode="normal" in2="BackgroundImageFix" result="effect1_dropShadow_1_81"/>
<feBlend mode="normal" in="SourceGraphic" in2="effect1_dropShadow_1_81" result="shape"/>
</filter>
<linearGradient id="paint0_linear_1_81" x1="32.5448" y1="61.4617" x2="61.5733" y2="26.4492" gradientUnits="userSpaceOnUse">
<stop stop-color="#AAAAAA"/>
<stop offset="1" stop-color="#383838"/>
</linearGradient>
<clipPath id="clip0_1_81">
<rect x="2.67999" width="566.15" height="278.05" rx="33.5" fill="white"/>
</clipPath>
</defs>
</svg>
