<svg width="3072" height="1512" viewBox="0 0 3072 1512" fill="none" xmlns="http://www.w3.org/2000/svg">
<g filter="url(#filter0_d_1_3)">
<g clip-path="url(#clip0_1_3)">
<rect x="2.67993" width="3066" height="1506" rx="33.5" fill="#190719"/>
<mask id="mask0_1_3" style="mask-type:luminance" maskUnits="userSpaceOnUse" x="240" y="235" width="1095" height="1096">
<path d="M240.394 235.844H1334.68V1330.97H240.394V235.844Z" fill="white"/>
</mask>
<g mask="url(#mask0_1_3)">
<path d="M1314.06 734.643L836.273 256.521C829.728 249.967 821.957 244.768 813.403 241.22C804.849 237.673 795.681 235.847 786.422 235.847C777.163 235.847 767.994 237.673 759.441 241.22C750.887 244.768 743.116 249.967 736.571 256.521L637.392 355.824L763.223 481.751C778.017 476.723 793.921 475.938 809.137 479.485C824.353 483.032 838.274 490.769 849.325 501.821C860.438 512.954 868.195 526.992 871.71 542.329C875.225 557.666 874.356 573.684 869.201 588.55L990.519 709.925C1005.38 704.76 1021.39 703.89 1036.72 707.415C1052.05 710.939 1066.08 718.716 1077.19 729.852C1084.98 737.644 1091.16 746.894 1095.37 757.075C1099.59 767.255 1101.75 778.167 1101.75 789.187C1101.75 800.207 1099.59 811.119 1095.37 821.299C1091.16 831.48 1084.98 840.73 1077.19 848.522C1061.45 864.26 1040.11 873.1 1017.86 873.1C995.604 873.1 974.262 864.26 958.519 848.522C946.825 836.799 938.857 821.875 935.619 805.63C932.381 789.385 934.017 772.545 940.322 757.228L827.186 644.041V941.96C839.128 947.864 849.492 956.529 857.421 967.239C865.349 977.949 870.614 990.396 872.779 1003.55C874.944 1016.7 873.947 1030.18 869.871 1042.87C865.794 1055.56 858.755 1067.09 849.337 1076.52C841.552 1084.31 832.309 1090.49 822.136 1094.71C811.963 1098.93 801.059 1101.1 790.048 1101.1C779.037 1101.1 768.133 1098.93 757.96 1094.71C747.787 1090.49 738.544 1084.31 730.759 1076.52C722.97 1068.73 716.792 1059.47 712.576 1049.29C708.361 1039.11 706.191 1028.2 706.191 1017.18C706.191 1006.15 708.361 995.242 712.576 985.06C716.792 974.878 722.97 965.627 730.759 957.835C738.605 949.968 747.93 943.733 758.197 939.493V638.833C747.972 634.618 738.68 628.423 730.855 620.604C723.029 612.784 716.825 603.494 712.598 593.268C708.37 583.042 706.204 572.08 706.222 561.014C706.24 549.947 708.444 538.993 712.705 528.78L588.636 404.593L260.995 732.403C247.792 745.642 240.377 763.582 240.377 782.286C240.377 800.991 247.792 818.931 260.995 832.17L738.809 1310.35C752.038 1323.56 769.962 1330.98 788.649 1330.98C807.336 1330.98 825.26 1323.56 838.488 1310.35L1314.06 834.411C1327.27 821.172 1334.68 803.231 1334.68 784.527C1334.68 765.823 1327.27 747.882 1314.06 734.643Z" fill="white" fill-opacity="0.2"/>
</g>
<path d="M1744.31 838.281C1792.41 838.281 1831.39 877.275 1831.39 925.375C1831.39 960.524 1810.57 990.809 1780.6 1004.57V1506H1708.03V1004.57C1678.05 990.809 1657.23 960.525 1657.23 925.375C1657.23 877.275 1696.22 838.281 1744.31 838.281ZM2183.24 816.402C2217.25 782.389 2272.39 782.389 2306.4 816.402C2331.25 841.256 2337.94 877.394 2326.47 908.326L2680.98 1262.89L2680.44 1263.43L2680.44 1506H2607.87V1292.41L2275.15 959.646C2244.23 971.116 2208.09 964.425 2183.24 939.571C2149.24 905.558 2149.24 850.414 2183.24 816.402ZM252.488 1258.17C283.415 1246.7 319.547 1253.39 344.398 1278.24C378.406 1312.25 378.406 1367.4 344.398 1401.41C310.391 1435.42 255.254 1435.42 221.247 1401.41C196.396 1376.56 189.706 1340.42 201.175 1309.49L-153.34 954.921L-102.028 903.601L252.488 1258.17ZM3081.06 172.725L2586.62 667.233L2586.1 666.714V667.722H2084.74C2070.98 697.704 2040.7 718.527 2005.56 718.527C1957.46 718.527 1918.48 679.534 1918.48 631.433C1918.48 583.332 1957.46 544.339 2005.56 544.339C2040.7 544.339 2070.98 565.162 2084.74 595.144H2556.07L3029.74 121.405L3081.06 172.725Z" fill="white" fill-opacity="0.2"/>
</g>
</g>
<defs>
<filter id="filter0_d_1_3" x="-6.84261e-05" y="0" width="3071.36" height="1511.36" filterUnits="userSpaceOnUse" color-interpolation-filters="sRGB">
<feFlood flood-opacity="0" result="BackgroundImageFix"/>
<feColorMatrix in="SourceAlpha" type="matrix" values="0 0 0 0 0 0 0 0 0 0 0 0 0 0 0 0 0 0 127 0" result="hardAlpha"/>
<feOffset dy="2.68"/>
<feGaussianBlur stdDeviation="1.34"/>
<feComposite in2="hardAlpha" operator="out"/>
<feColorMatrix type="matrix" values="0 0 0 0 0 0 0 0 0 0 0 0 0 0 0 0 0 0 0.25 0"/>
<feBlend mode="normal" in2="BackgroundImageFix" result="effect1_dropShadow_1_3"/>
<feBlend mode="normal" in="SourceGraphic" in2="effect1_dropShadow_1_3" result="shape"/>
</filter>
<clipPath id="clip0_1_3">
<rect x="2.67993" width="3066" height="1506" rx="33.5" fill="white"/>
</clipPath>
</defs>
</svg>
